<svg width="10" height="6" viewBox="0 0 10 6" fill="none" xmlns="http://www.w3.org/2000/svg">
<path fill-rule="evenodd" clip-rule="evenodd" d="M9.5302 5.15155L8.4974 5.95625C8.457 5.98752 8.405 6.00061 8.3514 5.99916C8.2986 5.99552 8.2494 5.97261 8.215 5.93552L4.79899 2.28075L1.38537 5.93552C1.35057 5.97261 1.30137 5.99552 1.24857 5.99916C1.19737 6.00025 1.14297 5.98752 1.10257 5.95625L0.069769 5.15155C0.0293689 5.11992 0.00456877 5.07519 0.000568756 5.02683C-0.00343126 4.97847 0.0137688 4.93084 0.0489689 4.89447L4.64818 0.0630183C4.68618 0.0233836 4.74138 0.00011158 4.79939 0.00011158C4.85739 0.00011158 4.91259 0.0230198 4.95059 0.0630183L9.5514 4.89447C9.5862 4.9312 9.6034 4.97847 9.5998 5.02683C9.5958 5.07519 9.5706 5.11992 9.5302 5.15155Z" fill="#181818"/>
</svg>
